<?xml version="1.0" encoding="utf-8"?>
<!-- Generator: Adobe Illustrator 19.0.0, SVG Export Plug-In . SVG Version: 6.00 Build 0)  -->
<svg version="1.0" id="Layer_1" xmlns="http://www.w3.org/2000/svg" xmlns:xlink="http://www.w3.org/1999/xlink" x="0px" y="0px"
	 viewBox="0 0 432 432" style="enable-background:new 0 0 432 432;" xml:space="preserve">
<style type="text/css">
	.st0{fill:#141426;}
	.st1{fill:#2D2D5B;}
</style>
<g id="XMLID_1_">
	<polygon id="XMLID_19_" class="st0" points="27,27 189,27 189,0 0,0 0,432 189,432 189,405 27,405 	"/>
	<polygon id="XMLID_21_" class="st0" points="243,0 243,27 405,27 405,405 243,405 243,432 432,432 432,0 	"/>
</g>
<g id="XMLID_23_">
	<path id="XMLID_24_" class="st1" d="M267.7,209h82.2v98.3c-8.8,7.4-19.4,12.7-31.7,16.1s-24.4,5-36.4,5c-14.1,0-27.1-2.2-39.2-6.6
		c-12.1-4.4-22.5-11.3-31.3-20.6c-8.8-9.3-15.8-21.3-20.8-35.8c-5-14.5-7.6-31.7-7.6-51.7c0-20.8,3-38.5,9-53.1
		c6-14.6,13.9-26.5,23.6-35.6c9.8-9.1,20.7-15.8,32.9-19.8c12.2-4.1,24.6-6.1,37.2-6.1c12.6,0,23.7,0.9,33.2,2.8
		c9.6,1.9,17.2,3.9,22.8,6l-8.8,36.2c-5.3-2.1-11.1-3.7-17.6-4.9c-6.5-1.2-14.8-1.7-24.9-1.7c-9,0-17.3,1.4-24.9,4.1
		c-7.6,2.7-14.1,7.2-19.7,13.4c-5.6,6.2-9.9,14.1-12.9,23.8c-3,9.7-4.6,21.4-4.6,35.3c0,13.2,1.5,24.6,4.4,34.2
		c2.9,9.6,7,17.4,12.3,23.6c5.2,6.2,11.4,10.8,18.4,13.7c7,2.9,14.5,4.4,22.5,4.4c5.5,0,10.8-0.7,16.1-2c5.2-1.4,9.7-3.4,13.2-6.1
		v-41.6l-47.6-5V209z"/>
</g>
<g id="XMLID_17_">
	<path id="XMLID_18_" class="st0" d="M85.5,105.7c8.8-1.7,18.5-3,29.1-3.9c10.6-0.9,21.2-1.4,31.7-1.4c10.9,0,21.9,0.9,32.9,2.7
		c11,1.8,20.9,5.4,29.8,10.7c8.8,5.4,16,12.8,21.6,22.4c5.6,9.6,8.3,22,8.3,37.3c0,13.9-2.4,25.6-7.2,35.1
		c-4.8,9.6-11.2,17.4-19.2,23.5c-8,6.1-17.1,10.5-27.2,13.2c-10.2,2.7-20.7,4.1-31.7,4.1c-1.1,0-2.7,0-5,0c-2.3,0-4.7,0-7.2-0.2
		c-2.5-0.1-5-0.3-7.4-0.5c-2.4-0.2-4.1-0.4-5.2-0.6V324H85.5V105.7z M149.8,137.5c-4.2,0-8.2,0.2-12,0.5c-3.8,0.3-6.8,0.7-9.1,1.1
		v71.5c0.8,0.2,2.1,0.4,3.8,0.6c1.7,0.2,3.5,0.4,5.4,0.5c1.9,0.1,3.7,0.2,5.5,0.2c1.8,0,3.1,0,3.9,0c5.7,0,11.3-0.5,16.9-1.6
		c5.6-1,10.6-3,15-5.8s7.9-6.8,10.6-11.8c2.6-5,3.9-11.7,3.9-19.8c0-6.9-1.3-12.6-3.8-17.2c-2.5-4.5-5.8-8.1-9.9-10.9
		c-4.1-2.7-8.8-4.6-14-5.7C160.6,138,155.2,137.5,149.8,137.5z"/>
</g>
</svg>
